<mxfile host="app.diagrams.net" modified="2024-06-18T02:49:46.696Z" agent="Mozilla/5.0 (Macintosh; Intel Mac OS X 10_15_7) AppleWebKit/537.36 (KHTML, like Gecko) Chrome/125.0.0.0 Safari/537.36" version="24.5.4" etag="uDrAnFMqMI9FV7WY-GnA" type="github">
  <diagram name="Trang-1" id="OY5zIIJFtXhcmqJ5cgLb">
    <mxGraphModel>
      <root>
        <mxCell id="0" />
        <mxCell id="1" parent="0" />
      </root>
    </mxGraphModel>
  </diagram>
</mxfile>
